<svg width="302" height="193" viewBox="0 0 302 193" fill="none" xmlns="http://www.w3.org/2000/svg">
<path fill-rule="evenodd" clip-rule="evenodd" d="M89.1612 64.3012C83.8052 64.9217 78.1163 67.2388 74.2571 70.3711C70.4258 73.4813 67.2824 78.5009 65.5879 84.2158C64.2261 88.8075 63.9831 90.7227 64.0009 96.7261C64.0142 101.348 64.1488 103.045 64.7125 105.69C67.4008 118.307 74.0345 125.313 85.664 127.819C87.7179 128.261 89.6195 128.391 93.7352 128.367C98.4597 128.341 99.4957 128.237 102.189 127.519C103.878 127.07 105.904 126.416 106.692 126.068L108.125 125.434L107.628 123.749C107.354 122.822 107.075 122.005 107.007 121.934C106.939 121.862 105.635 122.181 104.11 122.642C99.998 123.886 97.1536 124.217 92.1517 124.035C84.6293 123.76 80.9101 122.262 76.2993 117.648C70.8679 112.213 68.8755 106.47 68.8755 96.251C68.8755 88.5896 70.1984 82.9584 73.0134 78.6377C74.9197 75.7119 78.6966 72.2568 81.5416 70.8357C85.5263 68.8455 87.2093 68.5373 94.052 68.5452C99.6294 68.5512 100.299 68.6155 103.205 69.4213C104.93 69.8992 106.376 70.2526 106.419 70.2061C106.462 70.1598 106.718 69.3734 106.988 68.4584L107.479 66.795L106.625 66.3659C105.27 65.6859 100.945 64.635 98.0192 64.2756C94.9676 63.9006 92.5577 63.9075 89.1612 64.3012ZM76.4742 95.9343V113.987H78.0577H79.6413V106.254C79.6413 102 79.7278 98.2945 79.8336 98.0189C79.9979 97.5907 80.7698 97.5176 85.1386 97.516C87.9507 97.515 90.7502 97.3757 91.3599 97.2059C92.5013 96.8883 94.8438 95.166 94.8438 94.6443C94.8438 94.4723 91.7643 94.3507 87.4069 94.3507H79.9701L79.7949 93.6381C79.6983 93.246 79.66 90.2888 79.7097 87.0662L79.7997 81.2069H85.659C91.3972 81.2069 91.5508 81.2244 93.1018 82.0507C100.143 85.8019 100.118 95.3465 93.0568 98.818C91.7045 99.4831 90.9437 99.594 86.7675 99.734L82.0167 99.8933V101.477V103.06L85.3099 103.11L88.6035 103.16L93.9924 108.574L99.3817 113.987H101.781H104.18L98.5145 108.315L92.8488 102.642L94.8393 101.637C95.9342 101.085 97.502 99.9316 98.3232 99.0752L99.8165 97.5179H104.614H109.413V105.753V113.987H110.996H112.58V95.9343V77.8814H111.002H109.424L109.339 86.0369L109.254 94.1924H105.295H101.336L101.495 93.0839C101.582 92.4742 101.632 90.9438 101.606 89.6826C101.5 84.6212 97.8044 79.8913 92.7585 78.3606C91.5721 78.0008 89.4488 77.8874 83.8378 77.8849L76.4742 77.8814V95.9343ZM166.307 80.2457C164.746 80.8022 163.335 82.1283 162.588 83.7407C161.791 85.4633 161.785 89.2826 162.579 91.028C163.91 93.9593 167.11 95.412 170.627 94.682C171.618 94.4765 172.513 94.1718 172.616 94.0049C172.719 93.8383 172.708 93.2675 172.591 92.737C172.428 91.9928 172.26 91.8243 171.855 91.9994C170.835 92.4415 167.547 92.4849 166.756 92.0669C164.113 90.6689 163.938 84.5974 166.491 82.8099C167.301 82.2417 170.053 82.1463 171.354 82.641C172.39 83.0347 172.398 83.0281 172.509 81.6836C172.592 80.6815 172.514 80.5843 171.331 80.2204C169.648 79.7025 167.805 79.7117 166.307 80.2457ZM121.765 87.3503V94.6674H123.19H124.615V91.9563V89.2449L125.783 89.3434C126.881 89.4356 127.038 89.5933 128.397 91.9753L129.843 94.5091L131.346 94.6057C132.173 94.6586 132.85 94.6364 132.85 94.5563C132.85 94.4758 132.126 93.1795 131.24 91.6754L129.63 88.9406L130.954 87.7659C132.053 86.7894 132.304 86.346 132.44 85.1393C132.639 83.3777 132.035 82.0472 130.558 80.9944C129.638 80.3379 129.098 80.2444 125.645 80.145L121.765 80.0332V87.3503ZM135.068 85.5438C135.068 91.69 135.315 92.6547 137.208 93.9194C139.263 95.2917 142.807 95.171 144.724 93.6631C146.269 92.4479 146.569 91.2038 146.72 85.4035L146.859 80.0984H145.424H143.989L143.883 85.3018C143.787 89.9984 143.712 90.5925 143.111 91.3986C142.576 92.1179 142.159 92.3107 140.976 92.3883C139.756 92.4685 139.372 92.3503 138.712 91.6903C138.203 91.1816 137.908 90.5197 137.892 89.8518C137.878 89.2779 137.843 86.8841 137.813 84.5325L137.759 80.2568L136.413 80.1596L135.067 80.062L135.068 85.5438ZM152.973 80.6369C152.848 80.9504 151.897 83.5586 150.86 86.4328C149.823 89.307 148.767 92.1961 148.513 92.8526C147.851 94.5686 147.902 94.6674 149.452 94.6674C150.85 94.6674 150.852 94.6659 151.378 93.0839L151.904 91.5003H154.545H157.186L157.712 93.0839C158.238 94.6659 158.239 94.6674 159.638 94.6674C160.408 94.6674 161.038 94.543 161.038 94.3909C161.038 94.2389 159.915 90.9967 158.542 87.1856L156.046 80.2568L154.623 80.1618C153.492 80.0864 153.153 80.1843 152.973 80.6369ZM175.29 87.3829V94.6674H176.715H178.14V91.5003V88.3331H180.991H183.841V91.5003V94.6674H185.267H186.692V87.3829V80.0984H185.267H183.841V83.1073V86.1161H180.991H178.14V83.1073V80.0984H176.715H175.29V87.3829ZM129.103 83.1563C129.868 83.8481 129.841 85.3246 129.049 86.1161C128.556 86.6089 127.994 86.7495 126.515 86.7495H124.615V84.6908V82.6322H126.57C127.944 82.6322 128.696 82.7877 129.103 83.1563ZM155.349 85.8399C155.718 87.0814 156.096 88.2929 156.188 88.532C156.317 88.869 155.949 88.9665 154.545 88.9665C153.049 88.9665 152.768 88.8823 152.921 88.481C153.024 88.2143 153.41 87.0029 153.778 85.7889C154.147 84.5752 154.5 83.5823 154.562 83.5823C154.625 83.5823 154.979 84.598 155.349 85.8399ZM166.264 97.0403C164.733 97.5774 163.176 99.2741 162.674 100.951C162.103 102.855 162.221 106.333 162.905 107.811C163.598 109.307 164.94 110.638 166.264 111.141C167.412 111.577 170.424 111.602 171.522 111.185C172.835 110.685 174.393 109.184 175.011 107.824C175.697 106.315 175.803 102.839 175.222 100.902C174.185 97.4374 170.121 95.686 166.264 97.0403ZM206.143 97.0178C204.705 97.6443 203.795 98.9653 203.795 100.427C203.795 102.425 204.548 103.487 206.588 104.367C209.744 105.728 210.54 106.211 210.797 106.925C211.436 108.702 208.518 109.78 205.707 108.804C204.93 108.535 204.247 108.362 204.189 108.419C204.132 108.477 204.006 109.007 203.91 109.598C203.749 110.592 203.816 110.701 204.817 111.063C206.33 111.61 210.265 111.563 211.383 110.985C212.911 110.195 213.613 109.022 213.613 107.262C213.613 105.908 213.469 105.547 212.583 104.667C211.994 104.081 210.572 103.27 209.253 102.768C207.96 102.276 206.808 101.623 206.623 101.277C205.739 99.6253 207.715 98.5456 210.521 99.1474C212.232 99.5142 212.596 99.3504 212.733 98.1535C212.805 97.5188 212.619 97.307 211.712 96.9906C210.237 96.4756 207.356 96.4898 206.143 97.0178ZM121.838 104.09L121.923 111.295L123.269 111.392L124.615 111.49V108.304V105.119H127.624H130.633V108.304V111.49L131.979 111.392L133.325 111.295L133.41 104.09L133.495 96.8845H132.064H130.633V99.7349V102.585H127.624H124.615V99.7349V96.8845H123.184H121.753L121.838 104.09ZM137.755 103.923C136.364 107.794 135.261 111.037 135.304 111.129C135.348 111.22 135.977 111.295 136.702 111.295C138.003 111.295 138.028 111.274 138.551 109.712L139.081 108.128H141.718H144.355L144.884 109.712C145.411 111.294 145.413 111.295 146.931 111.393C148.078 111.467 148.415 111.389 148.305 111.077C148.224 110.849 147.047 107.562 145.689 103.773L143.22 96.8845H141.752H140.285L137.755 103.923ZM150.026 104.09L150.111 111.295L151.457 111.392L152.803 111.49V104.187V96.8845H151.372H149.941L150.026 104.09ZM156.049 99.9221C154.383 101.83 153.436 103.182 153.436 103.652C153.436 104.097 154.531 105.786 156.204 107.921L158.97 111.453H160.479C161.309 111.453 161.988 111.375 161.988 111.278C161.988 111.128 157.658 105.598 156.403 104.146C156.028 103.711 156.338 103.235 158.822 100.436C160.389 98.6701 161.671 97.1486 161.671 97.0549C161.671 96.9611 160.994 96.8946 160.167 96.9066C158.671 96.9288 158.648 96.9453 156.049 99.9221ZM177.897 104.09L177.982 111.295L181.308 111.275C183.137 111.265 185.155 111.079 185.793 110.864C188.247 110.036 189.842 107.466 189.85 104.327C189.858 101.653 189.338 100.09 187.996 98.7474C186.517 97.2686 185.101 96.8883 181.064 96.8864L177.812 96.8845L177.897 104.09ZM192.393 104.169V111.453H197.143H201.894V110.187V108.92H198.569H195.243V107.031V105.142L198.326 105.051L201.409 104.961L201.414 103.864L201.419 102.767L198.331 102.86L195.243 102.953V101.027V99.1015H198.569H201.894V97.993V96.8845H197.143H192.393V104.169ZM216.147 104.187V111.49L217.493 111.392L218.839 111.295L218.929 108.207L219.02 105.119H221.859H224.698V108.286V111.453H226.123H227.548V104.169V96.8845H226.123H224.698V99.7349V102.585H221.847H218.997V99.7349V96.8845H217.572H216.147V104.187ZM171.23 99.6282C172.314 100.609 172.82 101.961 172.82 103.876C172.82 107.74 171.45 109.435 168.555 109.157C166.536 108.963 165.668 108.065 165.167 105.654C164.795 103.86 165.088 101.641 165.871 100.321C166.774 98.7987 169.871 98.3987 171.23 99.6282ZM184.309 99.53C186.145 100.083 187.009 101.508 187.007 103.978C187.005 107.285 185.385 108.92 182.11 108.92H180.674V104.222C180.674 101.638 180.769 99.4286 180.885 99.3127C181.203 98.9951 182.89 99.1021 184.309 99.53ZM143.294 105.357C143.299 105.622 142.778 105.753 141.718 105.753C140.847 105.753 140.134 105.661 140.134 105.549C140.134 105.328 141.327 101.14 141.61 100.368C141.767 99.9392 143.276 104.408 143.294 105.357ZM126.344 113.669C122.963 114.157 121.269 116.73 121.516 121.002C121.685 123.925 122.488 125.372 124.478 126.344C125.873 127.025 128.462 127.18 129.82 126.664C131.36 126.078 130.66 125.764 128.178 125.926C125.97 126.071 125.613 126.012 124.615 125.336C123.057 124.28 122.399 122.798 122.399 120.342C122.398 117.855 123.217 115.972 124.673 115.112C125.757 114.472 128.351 114.266 129.603 114.721C130.147 114.919 130.316 114.864 130.316 114.49C130.316 114.052 129.75 113.815 128.099 113.559C127.838 113.518 127.048 113.568 126.344 113.669ZM233.408 113.59C231.662 113.88 231.281 114.083 230.707 115.025C229.371 117.216 230.412 119.185 233.5 120.312C236.23 121.307 236.674 121.597 237.028 122.611C237.525 124.039 236.779 125.537 235.332 126.015C234.172 126.397 232.029 126.223 230.953 125.658C230.538 125.44 230.399 125.49 230.399 125.861C230.399 126.544 231.699 126.973 233.775 126.973C236.62 126.973 238 125.77 238 123.291C238 121.778 236.726 120.551 234.393 119.816C232.139 119.106 231.032 118.141 231.032 116.888C231.032 114.863 233.225 113.83 235.937 114.579C237.225 114.935 237.701 114.828 237.174 114.301C236.795 113.922 234.273 113.446 233.408 113.59ZM134.401 114.383C131.049 116.605 130.916 123.766 134.183 126.137C135.254 126.915 138.185 127.201 139.501 126.656C140.025 126.439 140.875 125.782 141.389 125.196C143.914 122.32 143.279 116.15 140.267 114.288C138.81 113.387 135.831 113.436 134.401 114.383ZM145.519 120.322C145.519 126.022 145.586 126.973 145.994 126.973C146.398 126.973 146.469 126.123 146.469 121.228V115.483L148.75 120.119C150.005 122.669 151.109 124.753 151.205 124.751C151.692 124.737 152.187 123.918 154.149 119.879L156.287 115.477V121.225C156.287 126.123 156.357 126.973 156.762 126.973C157.169 126.973 157.237 126.022 157.237 120.322C157.237 114.491 157.176 113.67 156.74 113.67C156.412 113.67 155.418 115.377 153.81 118.701L151.376 123.731L149.001 118.713C145.663 111.657 145.519 111.723 145.519 120.322ZM160.721 120.298C160.721 126.02 160.789 126.973 161.196 126.973C161.6 126.973 161.671 126.142 161.671 121.392V115.812L163.893 120.309C165.221 122.996 166.272 124.76 166.506 124.693C166.721 124.631 167.916 122.518 169.161 119.997L171.424 115.412L171.44 120.638C171.461 127.36 171.439 126.973 171.806 126.973C172.007 126.973 172.123 124.544 172.123 120.322C172.123 114.947 172.041 113.67 171.695 113.67C171.454 113.67 170.254 115.814 168.945 118.58C167.668 121.28 166.543 123.483 166.444 123.476C166.345 123.47 165.241 121.296 163.991 118.646C162.661 115.827 161.512 113.786 161.22 113.727C160.778 113.636 160.721 114.392 160.721 120.298ZM177.475 114.386C175.806 115.495 174.973 117.46 174.973 120.289C174.973 124.437 176.626 126.637 179.949 126.912C184.063 127.253 186.544 123.995 185.955 119.025C185.53 115.43 183.734 113.67 180.489 113.67C179.006 113.67 178.298 113.838 177.475 114.386ZM188.909 120.322V127.05L191.68 126.91C195.144 126.734 196.661 126.029 197.779 124.076C198.43 122.939 198.568 122.279 198.564 120.322C198.557 117.41 197.881 115.858 196.107 114.685C195.032 113.973 194.431 113.836 191.881 113.725L188.909 113.595V120.322ZM201.334 120.216C201.398 125.109 201.519 126.795 201.815 126.894C202.124 126.996 202.211 125.549 202.211 120.348C202.211 114.584 202.145 113.67 201.73 113.67C201.311 113.67 201.259 114.533 201.334 120.216ZM204.428 114.146C204.428 114.519 204.868 114.621 206.487 114.621H208.545V120.797C208.545 126.075 208.614 126.973 209.02 126.973C209.426 126.973 209.495 126.075 209.495 120.797V114.621H211.554C213.173 114.621 213.613 114.519 213.613 114.146C213.613 113.745 212.891 113.67 209.02 113.67C205.149 113.67 204.428 113.745 204.428 114.146ZM215.538 119.778C215.506 123.137 215.574 126.13 215.689 126.429C216.268 127.937 216.463 126.396 216.463 120.322C216.463 114.903 216.383 113.67 216.03 113.67C215.68 113.67 215.585 114.848 215.538 119.778ZM219.947 120.322V126.973H223.906C227.214 126.973 227.865 126.894 227.865 126.498C227.865 126.104 227.267 126.022 224.381 126.022H220.897V123.342V120.661L223.96 120.57C226.06 120.508 227.063 120.356 227.153 120.084C227.252 119.785 226.504 119.688 224.091 119.688H220.897V117.165V114.642L224.276 114.552C226.631 114.49 227.695 114.342 227.787 114.066C227.887 113.764 226.98 113.67 223.932 113.67H219.947V120.322ZM139.369 114.813C141.188 115.676 141.876 117.188 141.876 120.322C141.876 123.633 141.182 125.028 139.125 125.851C135.552 127.28 132.757 124.843 132.757 120.297C132.757 115.702 135.845 113.141 139.369 114.813ZM183.071 115.081C185.562 116.713 185.837 122.711 183.527 125.021C181.717 126.831 178.533 126.594 176.961 124.533C176.139 123.454 176.082 123.18 176.082 120.29C176.082 117.665 176.18 117.067 176.738 116.307C178.171 114.352 181.095 113.786 183.071 115.081ZM195.248 115.211C196.985 116.14 197.619 117.52 197.619 120.378C197.619 122.339 197.492 122.978 196.965 123.683C195.693 125.387 194.745 125.845 192.218 125.972L189.859 126.092V120.356V114.621H192.002C193.486 114.621 194.484 114.802 195.248 115.211Z" fill="#058A24"/>
</svg>
